<?xml version="1.0" encoding="UTF-8"?>
<svg id="Layer_2" xmlns="http://www.w3.org/2000/svg" viewBox="0 0 450 104">
  <defs>
    <style>
      .cls-1{fill:#fff;}
      .cls-2{fill:#dc6e6e;}
      .cls-3{fill:#dcdcdc;stroke:#fff;stroke-miterlimit:10;stroke-width:2px;}
      .cls-text{fill:#dc6e6e; font-family: 'Segoe UI', Roboto, Helvetica, Arial, sans-serif; font-weight: 800; font-size: 72px; letter-spacing: 2px;}
    </style>
  </defs>
  <g id="ICON">
    <circle class="cls-2" cx="52" cy="52" r="52"/>
    <circle class="cls-3" cx="52" cy="52" r="39"/>
    <circle class="cls-2" cx="52" cy="52" r="27"/>
    <path class="cls-1" d="m52,26c14.36,0,26,11.64,26,26s-11.64,26-26,26-26-11.64-26-26,11.64-26,26-26m0-2c-15.44,0-28,12.56-28,28s12.56,28,28,28,28-12.56,28-28-12.56-28-28-28h0Z"/>
    <polygon class="cls-1" points="71 51.6 40 33.7 40 69.49 71 51.6"/>
  </g>
  <text x="120" y="77" class="cls-text">HERMES</text>
</svg>